<svg xmlns="http://www.w3.org/2000/svg" viewBox="0 0 30 30"><path fill="#fff" d="M2.5 2.5H27.5V27.5H2.5z"/><path fill="#788b9c" d="M27,3v24H3V3H27 M28,2H2v26h26V2L28,2z"/><path fill="#f78f8f" d="M2.5 2.5H27.5V7.5H2.5z"/><path fill="#c74343" d="M27,3v4H3V3H27 M28,2H2v6h26V2L28,2z"/><path fill="#c5d4de" d="M16 10H19V13H16zM21 10H24V13H21zM11 10H14V13H11zM16 15H19V18H16zM21 15H24V18H21zM6 15H9V18H6zM11 15H14V18H11z"/><path fill="#f78f8f" d="M16.5 20.5H18.5V22.5H16.5z"/><path fill="#c74343" d="M18,21v1h-1v-1H18 M19,20h-3v3h3V20L19,20z"/><g><path fill="#c5d4de" d="M6 20H9V23H6z"/></g><g><path fill="#c5d4de" d="M11 20H14V23H11z"/></g><path fill="#e1ebf2" d="M3 25H27V27H3z"/></svg>